<?xml version="1.0" encoding="UTF-8"?>
<!DOCTYPE svg PUBLIC "-//W3C//DTD SVG 1.1//EN" "http://www.w3.org/Graphics/SVG/1.1/DTD/svg11.dtd">
<svg xmlns="http://www.w3.org/2000/svg" version="1.1" width="180px" height="40px" style="shape-rendering:geometricPrecision; text-rendering:geometricPrecision; image-rendering:optimizeQuality; fill-rule:evenodd; clip-rule:evenodd" xmlns:xlink="http://www.w3.org/1999/xlink">
<g><path style="opacity:0.559" fill="#777679" d="M 94.5,1.5 C 95.9778,1.23798 97.3112,1.57131 98.5,2.5C 98.3764,3.10667 98.0431,3.44001 97.5,3.5C 97.1667,3.5 96.8333,3.5 96.5,3.5C 95.6618,3.84171 95.3284,4.50838 95.5,5.5C 95.5,5.83333 95.5,6.16667 95.5,6.5C 95.5,7.16667 95.5,7.83333 95.5,8.5C 92.3197,6.36545 91.9864,4.03211 94.5,1.5 Z"/></g>
<g><path style="opacity:0.612" fill="#a2a2a5" d="M 94.5,-0.5 C 95.8333,-0.5 97.1667,-0.5 98.5,-0.5C 99.1667,0.5 99.8333,1.5 100.5,2.5C 99.7777,3.55114 98.7777,4.21781 97.5,4.5C 97.5,4.16667 97.5,3.83333 97.5,3.5C 98.0431,3.44001 98.3764,3.10667 98.5,2.5C 97.3112,1.57131 95.9778,1.23798 94.5,1.5C 94.5,0.833333 94.5,0.166667 94.5,-0.5 Z"/></g>
<g><path style="opacity:0.004" fill="#fefffe" d="M 96.5,3.5 C 96.5,4.16667 96.8333,4.5 97.5,4.5C 97.1583,5.33825 96.4916,5.67158 95.5,5.5C 95.3284,4.50838 95.6618,3.84171 96.5,3.5 Z"/></g>
<g><path style="opacity:0.52" fill="#726e72" d="M 100.5,2.5 C 100.428,5.55255 99.4279,8.21921 97.5,10.5C 96.2089,9.45834 96.2089,8.29167 97.5,7C 96.9056,6.53566 96.2389,6.36899 95.5,6.5C 95.5,6.16667 95.5,5.83333 95.5,5.5C 96.4916,5.67158 97.1583,5.33825 97.5,4.5C 98.7777,4.21781 99.7777,3.55114 100.5,2.5 Z"/></g>
<g><path style="opacity:0.496" fill="#716a6f" d="M 83.5,12.5 C 86.2869,11.5233 89.2869,11.19 92.5,11.5C 92.8333,12.1667 93.1667,12.8333 93.5,13.5C 90.8333,13.5 88.1667,13.5 85.5,13.5C 84.8333,13.1667 84.1667,12.8333 83.5,12.5 Z"/></g>
<g><path style="opacity:0.459" fill="#6e6769" d="M 95.5,6.5 C 96.2389,6.36899 96.9056,6.53566 97.5,7C 96.2089,8.29167 96.2089,9.45834 97.5,10.5C 97.5,11.5 97.5,12.5 97.5,13.5C 96.8333,13.8333 96.1667,14.1667 95.5,14.5C 95.1583,13.6618 94.4916,13.3284 93.5,13.5C 93.1667,12.8333 92.8333,12.1667 92.5,11.5C 94.5,11.5 95.5,10.5 95.5,8.5C 95.5,7.83333 95.5,7.16667 95.5,6.5 Z"/></g>
<g><path style="opacity:0.325" fill="#746c6e" d="M 68.5,13.5 C 67.8333,13.1667 67.1667,12.8333 66.5,12.5C 66.238,11.0222 66.5713,9.68884 67.5,8.5C 68.4519,10.0453 68.7852,11.712 68.5,13.5 Z"/></g>
<g><path style="opacity:0.267" fill="#878485" d="M 127.5,14.5 C 127.158,13.6618 126.492,13.3284 125.5,13.5C 126.066,9.19434 126.732,8.86101 127.5,12.5C 131.5,13.1667 131.5,13.8333 127.5,14.5 Z"/></g>
<g><path style="opacity:0.412" fill="#a39792" d="M 47.5,13.5 C 49.0348,12.2121 50.7015,12.2121 52.5,13.5C 51.3112,14.4287 49.9778,14.762 48.5,14.5C 48.5,13.8333 48.1667,13.5 47.5,13.5 Z"/></g>
<g><path style="opacity:0.453" fill="#867b7a" d="M 60.5,14.5 C 59.5084,14.3284 58.8417,14.6618 58.5,15.5C 56.1205,14.4331 55.1205,15.4331 55.5,18.5C 55.5,19.1667 55.5,19.8333 55.5,20.5C 51.4034,17.0157 51.9034,14.349 57,12.5C 58.6991,12.3866 59.8658,13.0532 60.5,14.5 Z"/></g>
<g><path style="opacity:0.49" fill="#746769" d="M 71.5,12.5 C 72.1667,13.1667 72.8333,13.8333 73.5,14.5C 72.8333,14.5 72.5,14.8333 72.5,15.5C 71.8826,15.3893 71.3826,15.056 71,14.5C 70.7679,15.7375 70.2679,16.7375 69.5,17.5C 69.1201,15.302 69.7868,13.6354 71.5,12.5 Z"/></g>
<g><path style="opacity:0.522" fill="#696161" d="M 71.5,12.5 C 73.698,12.1201 75.3646,12.7868 76.5,14.5C 75.8485,15.0906 75.1818,15.7573 74.5,16.5C 73.8933,16.3764 73.56,16.0431 73.5,15.5C 74.8333,15.1667 74.8333,14.8333 73.5,14.5C 72.8333,13.8333 72.1667,13.1667 71.5,12.5 Z"/></g>
<g><path style="opacity:0.455" fill="#6a6566" d="M 104.5,12.5 C 106.483,12.1568 107.817,12.8235 108.5,14.5C 107.5,14.5 106.5,14.5 105.5,14.5C 105.5,15.5 105.5,16.5 105.5,17.5C 104.549,16.0813 104.216,14.4147 104.5,12.5 Z"/></g>
<g><path style="opacity:0.38" fill="#807a7c" d="M 113.5,12.5 C 114.833,13.5 116.167,14.5 117.5,15.5C 117.5,16.1667 117.5,16.8333 117.5,17.5C 116.833,17.8333 116.167,18.1667 115.5,18.5C 114.833,18.5 114.167,18.5 113.5,18.5C 113.5,17.1667 113.5,15.8333 113.5,14.5C 113.5,13.8333 113.5,13.1667 113.5,12.5 Z"/></g>
<g><path style="opacity:0.341" fill="#7a7375" d="M 124.5,15.5 C 123.833,15.8333 123.167,16.1667 122.5,16.5C 122.179,14.9519 121.179,14.2852 119.5,14.5C 119.5,15.8333 119.5,17.1667 119.5,18.5C 118.833,17.5 118.167,16.5 117.5,15.5C 117.559,13.2776 118.725,12.2776 121,12.5C 123.275,12.2776 124.441,13.2776 124.5,15.5 Z"/></g>
<g><path style="opacity:0.463" fill="#6b6365" d="M 97.5,13.5 C 97.2627,14.791 97.596,15.791 98.5,16.5C 98.5,17.8333 97.8333,18.5 96.5,18.5C 96.1667,18.5 95.8333,18.5 95.5,18.5C 94.4937,18.0623 94.4937,17.3957 95.5,16.5C 95.5,15.8333 95.5,15.1667 95.5,14.5C 96.1667,14.1667 96.8333,13.8333 97.5,13.5 Z"/></g>
<g><path style="opacity:0.203" fill="#6d6d6d" d="M 104.5,12.5 C 104.216,14.4147 104.549,16.0813 105.5,17.5C 105.719,18.675 105.386,19.675 104.5,20.5C 103.2,17.6908 103.2,15.0241 104.5,12.5 Z"/></g>
<g><path style="opacity:0.478" fill="#a09792" d="M 47.5,13.5 C 48.1667,13.5 48.5,13.8333 48.5,14.5C 48.5,15.5 48.5,16.5 48.5,17.5C 47.8333,17.5 47.5,17.8333 47.5,18.5C 46.1667,16.8333 46.1667,15.1667 47.5,13.5 Z"/></g>
<g><path style="opacity:0.482" fill="#726a6b" d="M 64.5,12.5 C 64.8333,13.1667 65.1667,13.8333 65.5,14.5C 63.8235,15.1834 63.1568,16.5168 63.5,18.5C 62.8333,18.5 62.5,18.8333 62.5,19.5C 61.3775,17.7116 61.2109,15.7116 62,13.5C 62.6708,12.7476 63.5041,12.4142 64.5,12.5 Z"/></g>
<g><path style="opacity:0.42" fill="#6f6466" d="M 64.5,12.5 C 65.1667,12.5 65.8333,12.5 66.5,12.5C 67.1667,12.8333 67.8333,13.1667 68.5,13.5C 68.5,15.8333 68.5,18.1667 68.5,20.5C 66.3792,20.6747 64.3792,20.3414 62.5,19.5C 62.5,18.8333 62.8333,18.5 63.5,18.5C 64.5,18.5 65.5,18.5 66.5,18.5C 66.7678,16.901 66.4345,15.5676 65.5,14.5C 65.1667,13.8333 64.8333,13.1667 64.5,12.5 Z"/></g>
<g><path style="opacity:0.478" fill="#726868" d="M 72.5,15.5 C 72.8333,15.5 73.1667,15.5 73.5,15.5C 73.56,16.0431 73.8933,16.3764 74.5,16.5C 75.1818,15.7573 75.8485,15.0906 76.5,14.5C 76.5,15.5 76.5,16.5 76.5,17.5C 71.3183,17.5573 71.3183,18.224 76.5,19.5C 73.4572,21.095 71.1239,20.4283 69.5,17.5C 70.2679,16.7375 70.7679,15.7375 71,14.5C 71.3826,15.056 71.8826,15.3893 72.5,15.5 Z"/></g>
<g><path style="opacity:0.58" fill="#81777b" d="M 83.5,12.5 C 84.1667,12.8333 84.8333,13.1667 85.5,13.5C 84.8902,14.391 84.5569,15.391 84.5,16.5C 85.2679,17.8666 85.2679,19.5333 84.5,21.5C 81.5717,22.513 80.2384,21.1797 80.5,17.5C 81.2632,15.6316 82.2632,13.9649 83.5,12.5 Z"/></g>
<g><path style="opacity:0.38" fill="#6f6768" d="M 60.5,14.5 C 60.9807,18.3491 59.314,20.3491 55.5,20.5C 55.5,19.8333 55.5,19.1667 55.5,18.5C 57.5,18.5 58.5,17.5 58.5,15.5C 58.8417,14.6618 59.5084,14.3284 60.5,14.5 Z"/></g>
<g><path style="opacity:0.49" fill="#746f70" d="M 125.5,13.5 C 126.492,13.3284 127.158,13.6618 127.5,14.5C 127.5,15.8333 127.5,17.1667 127.5,18.5C 128.675,18.281 129.675,18.6143 130.5,19.5C 128.994,20.7472 127.494,20.7472 126,19.5C 125.505,17.5273 125.338,15.5273 125.5,13.5 Z"/></g>
<g><path style="opacity:0.027" fill="#727171" d="M 98.5,16.5 C 99.9063,16.9731 100.573,17.9731 100.5,19.5C 99.2223,19.7822 98.2223,20.4489 97.5,21.5C 97.4431,20.391 97.1098,19.391 96.5,18.5C 97.8333,18.5 98.5,17.8333 98.5,16.5 Z"/></g>
<g><path style="opacity:0.51" fill="#6e676a" d="M 113.5,12.5 C 113.5,13.1667 113.5,13.8333 113.5,14.5C 109.5,15.8333 109.5,17.1667 113.5,18.5C 114.167,18.5 114.833,18.5 115.5,18.5C 110.984,21.7031 108.651,20.3698 108.5,14.5C 109.779,13.032 111.446,12.3653 113.5,12.5 Z"/></g>
<g><path style="opacity:0.329" fill="#74696d" d="M 95.5,16.5 C 94.4937,17.3957 94.4937,18.0623 95.5,18.5C 95.2627,19.791 95.596,20.791 96.5,21.5C 96.1667,22.1667 95.8333,22.8333 95.5,23.5C 91.5,21.1667 91.5,18.8333 95.5,16.5 Z"/></g>
<g><path style="opacity:0.301" fill="#766f73" d="M 117.5,15.5 C 118.167,16.5 118.833,17.5 119.5,18.5C 121.179,18.7148 122.179,18.0481 122.5,16.5C 123.167,16.1667 123.833,15.8333 124.5,15.5C 124.348,19.4866 122.348,20.9866 118.5,20C 117.748,19.3292 117.414,18.4959 117.5,17.5C 117.5,16.8333 117.5,16.1667 117.5,15.5 Z"/></g>
<g><path style="opacity:0.322" fill="#8c8582" d="M 48.5,17.5 C 49.7175,18.1614 51.0508,18.8281 52.5,19.5C 50.4181,20.8943 48.7514,20.561 47.5,18.5C 47.5,17.8333 47.8333,17.5 48.5,17.5 Z"/></g>
<g><path style="opacity:0.576" fill="#71696c" d="M 84.5,16.5 C 86.6589,17.7849 87.3255,19.4515 86.5,21.5C 85.8333,21.5 85.1667,21.5 84.5,21.5C 85.2679,19.5333 85.2679,17.8666 84.5,16.5 Z"/></g>
<g><path style="opacity:0.404" fill="#6c6668" d="M 80.5,17.5 C 80.2384,21.1797 81.5717,22.513 84.5,21.5C 85.1667,21.5 85.8333,21.5 86.5,21.5C 84.9894,23.4411 82.9894,23.9411 80.5,23C 79.193,21.0565 79.193,19.2232 80.5,17.5 Z"/></g>
<g><path style="opacity:0.473" fill="#686567" d="M 100.5,19.5 C 98.3899,22.7233 97.3899,26.3899 97.5,30.5C 96.7777,29.4489 95.7777,28.7822 94.5,28.5C 94.2267,26.549 94.8934,25.049 96.5,24C 96.2716,23.6012 95.9382,23.4346 95.5,23.5C 95.8333,22.8333 96.1667,22.1667 96.5,21.5C 96.8333,21.5 97.1667,21.5 97.5,21.5C 98.2223,20.4489 99.2223,19.7822 100.5,19.5 Z"/></g>
<g><path style="opacity:0.506" fill="#6c696a" d="M 70.5,27.5 C 69.391,27.5569 68.391,27.8902 67.5,28.5C 67.5,28.1667 67.5,27.8333 67.5,27.5C 67.4609,25.6412 68.2942,24.3079 70,23.5C 70.49,24.7932 70.6567,26.1266 70.5,27.5 Z"/></g>
<g><path style="opacity:0.486" fill="#6c696d" d="M 45.5,25.5 C 47.288,25.2148 48.9547,25.5481 50.5,26.5C 49.675,27.3857 48.675,27.719 47.5,27.5C 47.5,28.5 47.5,29.5 47.5,30.5C 45.6216,29.0655 44.955,27.3989 45.5,25.5 Z"/></g>
<g><path style="opacity:0.306" fill="#7b7476" d="M 82.5,28.5 C 81.6618,28.8417 81.3284,29.5084 81.5,30.5C 80.8333,30.5 80.1667,30.5 79.5,30.5C 80.9687,28.8947 80.6354,28.3947 78.5,29C 78.3809,30.1448 78.0476,31.3115 77.5,32.5C 77.1667,32.5 76.8333,32.5 76.5,32.5C 76.5,30.8333 76.5,29.1667 76.5,27.5C 78.7354,27.2053 80.7354,27.5386 82.5,28.5 Z"/></g>
<g><path style="opacity:0.604" fill="#848082" d="M 56.5,27.5 C 57.1667,27.5 57.5,27.8333 57.5,28.5C 58.2055,30.6716 59.2055,32.6716 60.5,34.5C 59.8333,34.5 59.1667,34.5 58.5,34.5C 57.1755,32.6342 55.8422,31.4676 54.5,31C 54.9783,29.6974 55.645,28.5307 56.5,27.5 Z"/></g>
<g><path style="opacity:0.631" fill="#867f81" d="M 61.5,28.5 C 63.2646,27.5386 65.2646,27.2053 67.5,27.5C 67.5,27.8333 67.5,28.1667 67.5,28.5C 66.7777,29.5511 65.7777,30.2178 64.5,30.5C 64.1788,28.9519 63.1788,28.2852 61.5,28.5 Z"/></g>
<g><path style="opacity:0.561" fill="#736d6f" d="M 70.5,27.5 C 74.4851,27.4399 76.1518,29.4399 75.5,33.5C 74.7321,32.7375 74.2321,31.7375 74,30.5C 73.31,29.2617 72.81,29.2617 72.5,30.5C 70.744,31.5521 70.0773,33.2188 70.5,35.5C 69.5,34.8333 68.5,34.1667 67.5,33.5C 67.5,31.8333 67.5,30.1667 67.5,28.5C 68.391,27.8902 69.391,27.5569 70.5,27.5 Z"/></g>
<g><path style="opacity:0.592" fill="#7c787a" d="M 91.5,28.5 C 90.5,28.5 89.5,28.5 88.5,28.5C 88.5,29.5 88.5,30.5 88.5,31.5C 88.5,31.8333 88.5,32.1667 88.5,32.5C 88.1788,34.0481 87.1788,34.7148 85.5,34.5C 84.8444,35.2778 84.0111,35.9444 83,36.5C 82.2352,36.4301 81.7352,36.0967 81.5,35.5C 82.8333,34.8333 83.8333,33.8333 84.5,32.5C 85.2189,30.9087 86.2189,29.4087 87.5,28C 89.0657,27.235 90.3991,27.4017 91.5,28.5 Z"/></g>
<g><path style="opacity:0.592" fill="#7a7579" d="M 107.5,32.5 C 106.609,31.8902 105.609,31.5569 104.5,31.5C 103.923,29.3484 102.756,29.015 101,30.5C 100.536,29.9056 100.369,29.2389 100.5,28.5C 104.82,26.4909 107.153,27.8243 107.5,32.5 Z"/></g>
<g><path style="opacity:0.603" fill="#736d72" d="M 114.5,27.5 C 113.833,28.5 113.167,29.5 112.5,30.5C 112.167,30.5 111.833,30.5 111.5,30.5C 110.662,30.1583 110.328,29.4916 110.5,28.5C 111.568,27.5655 112.901,27.2322 114.5,27.5 Z"/></g>
<g><path style="opacity:0.643" fill="#80777c" d="M 114.5,27.5 C 115.492,27.3284 116.158,27.6618 116.5,28.5C 116.201,30.4553 115.201,31.7886 113.5,32.5C 113.672,31.5084 113.338,30.8417 112.5,30.5C 113.167,29.5 113.833,28.5 114.5,27.5 Z"/></g>
<g><path style="opacity:0.598" fill="#7a7579" d="M 123.5,28.5 C 125.167,27.1667 126.833,27.1667 128.5,28.5C 127.833,29.5 127.167,30.5 126.5,31.5C 126.167,31.5 125.833,31.5 125.5,31.5C 124.833,30.5 124.167,29.5 123.5,28.5 Z"/></g>
<g><path style="opacity:0.47" fill="#7b7a7b" d="M 132.5,27.5 C 133.167,28.8333 134.167,29.8333 135.5,30.5C 135.5,30.8333 135.5,31.1667 135.5,31.5C 134.209,31.2627 133.209,31.596 132.5,32.5C 131.833,32.5 131.167,32.5 130.5,32.5C 130.12,30.302 130.787,28.6354 132.5,27.5 Z"/></g>
<g><path style="opacity:0.371" fill="#6d6c6d" d="M 132.5,27.5 C 133.833,27.5 135.167,27.5 136.5,27.5C 136.737,28.791 136.404,29.791 135.5,30.5C 134.167,29.8333 133.167,28.8333 132.5,27.5 Z"/></g>
<g><path style="opacity:0.438" fill="#767478" d="M 45.5,25.5 C 44.955,27.3989 45.6216,29.0655 47.5,30.5C 47.5,30.8333 47.5,31.1667 47.5,31.5C 46.7777,32.5511 45.7777,33.2178 44.5,33.5C 44.5,31.8333 44.5,30.1667 44.5,28.5C 43.5,28.5 42.5,28.5 41.5,28.5C 41.5,27.5 41.5,26.5 41.5,25.5C 42.8333,25.5 44.1667,25.5 45.5,25.5 Z"/></g>
<g><path style="opacity:0.243" fill="#938e90" d="M 91.5,28.5 C 92.8333,28.5 93.5,29.1667 93.5,30.5C 92.5041,30.5858 91.6708,30.2524 91,29.5C 90.5357,30.0944 90.369,30.7611 90.5,31.5C 89.8333,31.5 89.1667,31.5 88.5,31.5C 88.5,30.5 88.5,29.5 88.5,28.5C 89.5,28.5 90.5,28.5 91.5,28.5 Z"/></g>
<g><path style="opacity:0.536" fill="#7a767a" d="M 110.5,28.5 C 110.328,29.4916 110.662,30.1583 111.5,30.5C 111.5,31.1667 111.5,31.8333 111.5,32.5C 110.391,32.4431 109.391,32.1098 108.5,31.5C 108.285,29.8212 108.952,28.8212 110.5,28.5 Z"/></g>
<g><path style="opacity:0.51" fill="#898589" d="M 121.5,29.5 C 121.5,31.1667 121.5,32.8333 121.5,34.5C 120.533,35.8062 119.199,36.4729 117.5,36.5C 117.5,33.8333 117.5,31.1667 117.5,28.5C 117.5,27.1667 117.5,25.8333 117.5,24.5C 118.5,24.5 119.5,24.5 120.5,24.5C 120.366,26.2915 120.699,27.9582 121.5,29.5 Z"/></g>
<g><path style="opacity:0.612" fill="#727172" d="M 128.5,28.5 C 129.434,29.5676 129.768,30.901 129.5,32.5C 128.209,32.7373 127.209,32.404 126.5,31.5C 127.167,30.5 127.833,29.5 128.5,28.5 Z"/></g>
<g><path style="opacity:0.602" fill="#767173" d="M 57.5,28.5 C 58.4584,28.9528 59.2917,29.6195 60,30.5C 60.2784,29.5842 60.7784,28.9175 61.5,28.5C 63.1788,28.2852 64.1788,28.9519 64.5,30.5C 63.596,31.209 63.2627,32.209 63.5,33.5C 65.1388,33.9258 66.4721,33.9258 67.5,33.5C 68.5,34.1667 69.5,34.8333 70.5,35.5C 67.6965,36.6378 64.6965,36.8045 61.5,36C 60.944,35.6174 60.6107,35.1174 60.5,34.5C 59.2055,32.6716 58.2055,30.6716 57.5,28.5 Z"/></g>
<g><path style="opacity:0.501" fill="#6f676a" d="M 79.5,30.5 C 79.5,31.8333 79.5,33.1667 79.5,34.5C 78.5,34.1667 77.8333,33.5 77.5,32.5C 78.0476,31.3115 78.3809,30.1448 78.5,29C 80.6354,28.3947 80.9687,28.8947 79.5,30.5 Z"/></g>
<g><path style="opacity:0.567" fill="#716e70" d="M 94.5,28.5 C 95.7777,28.7822 96.7777,29.4489 97.5,30.5C 97.5,31.5 97.5,32.5 97.5,33.5C 96.5,33.5 95.5,33.5 94.5,33.5C 94.5,31.8333 94.5,30.1667 94.5,28.5 Z"/></g>
<g><path style="opacity:0.574" fill="#949093" d="M 100.5,28.5 C 100.369,29.2389 100.536,29.9056 101,30.5C 102.756,29.015 103.923,29.3484 104.5,31.5C 103.167,32.8333 101.833,34.1667 100.5,35.5C 99.8333,35.5 99.1667,35.5 98.5,35.5C 98.5,34.8333 98.5,34.1667 98.5,33.5C 98.7959,31.597 99.4625,29.9303 100.5,28.5 Z"/></g>
<g><path style="opacity:0.533" fill="#6b6768" d="M 53.5,28.5 C 53.8016,31.0593 53.4682,33.3926 52.5,35.5C 49.8444,32.796 50.1777,30.4627 53.5,28.5 Z"/></g>
<g><path style="opacity:0.499" fill="#787576" d="M 56.5,27.5 C 55.645,28.5307 54.9783,29.6974 54.5,31C 55.8422,31.4676 57.1755,32.6342 58.5,34.5C 58.0296,35.6935 57.0296,36.3601 55.5,36.5C 54.2739,36.4805 53.2739,36.1471 52.5,35.5C 53.4682,33.3926 53.8016,31.0593 53.5,28.5C 54.209,27.596 55.209,27.2627 56.5,27.5 Z"/></g>
<g><path style="opacity:0.484" fill="#726e71" d="M 82.5,28.5 C 84.1042,29.287 84.7709,30.6203 84.5,32.5C 83.8333,33.8333 82.8333,34.8333 81.5,35.5C 81.5,33.8333 81.5,32.1667 81.5,30.5C 81.3284,29.5084 81.6618,28.8417 82.5,28.5 Z"/></g>
<g><path style="opacity:0.557" fill="#726b71" d="M 135.5,31.5 C 138.508,35.0751 137.508,36.7418 132.5,36.5C 132.953,35.5416 133.619,34.7083 134.5,34C 133.906,33.5357 133.239,33.369 132.5,33.5C 132.5,33.1667 132.5,32.8333 132.5,32.5C 133.209,31.596 134.209,31.2627 135.5,31.5 Z"/></g>
<g><path style="opacity:0.459" fill="#727073" d="M 47.5,31.5 C 47.5,33.1667 47.5,34.8333 47.5,36.5C 46.5,36.5 45.5,36.5 44.5,36.5C 44.5,35.5 44.5,34.5 44.5,33.5C 45.7777,33.2178 46.7777,32.5511 47.5,31.5 Z"/></g>
<g><path style="opacity:0.596" fill="#716c6e" d="M 75.5,33.5 C 75.5,34.5 75.5,35.5 75.5,36.5C 74.5,36.5 73.5,36.5 72.5,36.5C 72.5,34.5 72.5,32.5 72.5,30.5C 72.81,29.2617 73.31,29.2617 74,30.5C 74.2321,31.7375 74.7321,32.7375 75.5,33.5 Z"/></g>
<g><path style="opacity:0.647" fill="#797377" d="M 93.5,30.5 C 93.5,31.8333 93.5,33.1667 93.5,34.5C 92.5,33.8333 91.5,33.1667 90.5,32.5C 90.5,32.1667 90.5,31.8333 90.5,31.5C 90.369,30.7611 90.5357,30.0944 91,29.5C 91.6708,30.2524 92.5041,30.5858 93.5,30.5 Z"/></g>
<g><path style="opacity:0.298" fill="#969396" d="M 116.5,28.5 C 116.833,28.5 117.167,28.5 117.5,28.5C 117.5,31.1667 117.5,33.8333 117.5,36.5C 117.167,36.5 116.833,36.5 116.5,36.5C 116.167,35.5 115.5,34.8333 114.5,34.5C 114.167,33.8333 113.833,33.1667 113.5,32.5C 115.201,31.7886 116.201,30.4553 116.5,28.5 Z"/></g>
<g><path style="opacity:0.18" fill="#787878" d="M 125.5,31.5 C 125.833,31.5 126.167,31.5 126.5,31.5C 127.209,32.404 128.209,32.7373 129.5,32.5C 129.5,33.1667 129.5,33.8333 129.5,34.5C 128.167,35.8333 126.833,35.8333 125.5,34.5C 124.167,33.5 124.167,32.5 125.5,31.5 Z"/></g>
<g><path style="opacity:0.005" fill="#fefffe" d="M 129.5,32.5 C 129.833,32.5 130.167,32.5 130.5,32.5C 131.167,32.5 131.833,32.5 132.5,32.5C 132.5,32.8333 132.5,33.1667 132.5,33.5C 131.508,33.3284 130.842,33.6618 130.5,34.5C 130.167,34.5 129.833,34.5 129.5,34.5C 129.5,33.8333 129.5,33.1667 129.5,32.5 Z"/></g>
<g><path style="opacity:0.588" fill="#757272" d="M 76.5,32.5 C 76.8333,32.5 77.1667,32.5 77.5,32.5C 77.8333,33.5 78.5,34.1667 79.5,34.5C 79.1788,36.0481 78.1788,36.7148 76.5,36.5C 76.5,35.1667 76.5,33.8333 76.5,32.5 Z"/></g>
<g><path style="opacity:0.569" fill="#7f7d7e" d="M 94.5,33.5 C 95.5,33.5 96.5,33.5 97.5,33.5C 97.8333,33.5 98.1667,33.5 98.5,33.5C 98.5,34.1667 98.5,34.8333 98.5,35.5C 96.2911,36.9758 94.9577,36.3091 94.5,33.5 Z"/></g>
<g><path style="opacity:0.6" fill="#7b797c" d="M 104.5,31.5 C 105.609,31.5569 106.609,31.8902 107.5,32.5C 107.64,34.1238 106.973,35.2904 105.5,36C 103.613,36.7796 101.946,36.6129 100.5,35.5C 101.833,34.1667 103.167,32.8333 104.5,31.5 Z"/></g>
<g><path style="opacity:0.472" fill="#706b71" d="M 108.5,31.5 C 109.391,32.1098 110.391,32.4431 111.5,32.5C 112.625,33.6522 112.625,34.6522 111.5,35.5C 109.088,35.3059 108.088,33.9726 108.5,31.5 Z"/></g>
<g><path style="opacity:0.588" fill="#716b71" d="M 123.5,28.5 C 124.167,29.5 124.833,30.5 125.5,31.5C 124.167,32.5 124.167,33.5 125.5,34.5C 124.508,34.3284 123.842,34.6618 123.5,35.5C 122.833,35.1667 122.167,34.8333 121.5,34.5C 121.5,32.8333 121.5,31.1667 121.5,29.5C 122.167,29.1667 122.833,28.8333 123.5,28.5 Z"/></g>
<g><path style="opacity:0.447" fill="#8d8b8e" d="M 88.5,32.5 C 89.1667,32.5 89.8333,32.5 90.5,32.5C 89.8333,33.8333 89.1667,35.1667 88.5,36.5C 86.9731,36.573 85.9731,35.9063 85.5,34.5C 87.1788,34.7148 88.1788,34.0481 88.5,32.5 Z"/></g>
<g><path style="opacity:0.404" fill="#808081" d="M 90.5,32.5 C 91.5,33.1667 92.5,33.8333 93.5,34.5C 92.2196,35.9313 90.5529,36.5979 88.5,36.5C 89.1667,35.1667 89.8333,33.8333 90.5,32.5 Z"/></g>
<g><path style="opacity:0.663" fill="#a09fa2" d="M 111.5,30.5 C 111.833,30.5 112.167,30.5 112.5,30.5C 113.338,30.8417 113.672,31.5084 113.5,32.5C 113.833,33.1667 114.167,33.8333 114.5,34.5C 114.027,35.9063 113.027,36.573 111.5,36.5C 111.5,36.1667 111.5,35.8333 111.5,35.5C 112.625,34.6522 112.625,33.6522 111.5,32.5C 111.5,31.8333 111.5,31.1667 111.5,30.5 Z"/></g>
<g><path style="opacity:0.588" fill="#757376" d="M 132.5,33.5 C 133.239,33.369 133.906,33.5357 134.5,34C 133.619,34.7083 132.953,35.5416 132.5,36.5C 131.167,36.5 130.5,35.8333 130.5,34.5C 130.842,33.6618 131.508,33.3284 132.5,33.5 Z"/></g>
<g><path style="opacity:0.378" fill="#6a6a6a" d="M 125.5,34.5 C 126.833,35.8333 128.167,35.8333 129.5,34.5C 129.03,35.6935 128.03,36.3601 126.5,36.5C 125.274,36.4805 124.274,36.1471 123.5,35.5C 123.842,34.6618 124.508,34.3284 125.5,34.5 Z"/></g>
<g><path style="opacity:0.588" fill="#7a7d81" d="M 114.5,34.5 C 115.5,34.8333 116.167,35.5 116.5,36.5C 115.833,37.5 115.167,38.5 114.5,39.5C 112.833,39.5 111.167,39.5 109.5,39.5C 108.086,37.4017 108.752,36.4017 111.5,36.5C 113.027,36.573 114.027,35.9063 114.5,34.5 Z"/></g>
</svg>
