<?xml version="1.0" encoding="UTF-8"?>
<svg version="1.1" xmlns="http://www.w3.org/2000/svg" width="500" height="500">
<path d="M0 0 C4.42403704 3.79203175 6.16180338 7.2487934 6.68359375 13.1328125 C6.55900285 17.63469684 5.19381424 21.48454964 2.19140625 24.86328125 C-0.42546767 27.17996514 -1.81950931 28.25 -5.375 28.25 C-5.375 41.12 -5.375 53.99 -5.375 67.25 C-3.395 67.91 -1.415 68.57 0.625 69.25 C4.31642598 72.94142598 6.56422898 76.88058479 6.66015625 82.19921875 C6.27490488 87.13231562 4.96935546 90.47688101 1.625 94.25 C-3.16059467 97.59991627 -7.4851968 99.01349301 -13.375 98.25 C-18.6340971 96.35672504 -21.16508594 93.65216785 -24.375 89.25 C-26.03526461 84.26920617 -25.97403425 79.94726371 -24.25 75.0625 C-21.93715508 71.59323262 -19.7795403 69.66154938 -16.375 67.25 C-15.385 67.25 -14.395 67.25 -13.375 67.25 C-13.375 61.97 -13.375 56.69 -13.375 51.25 C-15.685 51.91 -17.995 52.57 -20.375 53.25 C-22.62576294 53.49482727 -22.62576294 53.49482727 -24.57861328 53.48950195 C-25.32273468 53.49323318 -26.06685608 53.49696442 -26.83352661 53.50080872 C-27.61291595 53.49667465 -28.3923053 53.49254059 -29.1953125 53.48828125 C-30.88151858 53.50368818 -32.56771668 53.51999085 -34.25390625 53.53710938 C-36.88510922 53.55360054 -39.51572186 53.56245795 -42.14697266 53.55541992 C-44.70541946 53.55280003 -47.26210182 53.58089545 -49.8203125 53.61328125 C-50.60375031 53.60307449 -51.38718811 53.59286774 -52.19436646 53.58235168 C-56.27393514 53.65526974 -58.13481231 54.05636062 -61.35180664 56.64990234 C-63.26080548 59.10324344 -64.12676434 60.55491781 -64.6875 63.5625 C-64.914375 64.779375 -65.14125 65.99625 -65.375 67.25 C-64.653125 67.311875 -63.93125 67.37375 -63.1875 67.4375 C-58.95395482 68.66052416 -56.5026898 71.37575597 -54.25390625 75.11328125 C-52.63227021 79.05565865 -52.83953609 83.07205938 -53.375 87.25 C-55.58742439 91.67484878 -58.32299616 94.44476657 -62.375 97.25 C-67.42304504 98.93268168 -71.69583946 98.81212419 -76.5625 96.6875 C-80.71176026 94.3751938 -82.98633081 91.81524998 -84.375 87.25 C-85.14401613 82.26741633 -85.0347531 77.84413557 -82.6875 73.3125 C-80.40711227 70.29252706 -78.80215916 68.78320278 -75.375 67.25 C-74.715 67.25 -74.055 67.25 -73.375 67.25 C-73.35373047 66.30640625 -73.35373047 66.30640625 -73.33203125 65.34375 C-72.98464924 59.10965129 -71.99220826 53.73976939 -67.375 49.25 C-61.62867049 45.53653287 -56.76269319 44.6972298 -50.01953125 44.81640625 C-48.24544179 44.80680831 -46.47135326 44.79703761 -44.69726562 44.78710938 C-41.93227115 44.7957292 -39.16750707 44.81265949 -36.40258789 44.8347168 C-33.71194252 44.8492351 -31.0226291 44.83399802 -28.33203125 44.81640625 C-27.09595879 44.84112755 -27.09595879 44.84112755 -25.83491516 44.86634827 C-21.52747452 44.82891223 -19.87104548 44.63729458 -16.359375 41.89550781 C-14.08406448 38.8621337 -13.69809549 37.18897522 -13.5625 33.4375 C-13.51480469 32.46167969 -13.46710938 31.48585937 -13.41796875 30.48046875 C-13.40378906 29.74441406 -13.38960938 29.00835937 -13.375 28.25 C-14.13296875 28.15460938 -14.8909375 28.05921875 -15.671875 27.9609375 C-18.76350099 27.14782199 -19.65679128 26.3300814 -21.625 23.875 C-22.12515625 23.26914063 -22.6253125 22.66328125 -23.140625 22.0390625 C-25.84923047 18.11329888 -25.84684241 13.84609458 -25.375 9.25 C-23.51731853 3.98656918 -20.80708258 1.41577327 -16.375 -1.75 C-10.74921329 -3.65199714 -5.17226319 -2.68191425 0 0 Z M-15.375 7.25 C-17.72049674 10.76824511 -17.95491403 12.10775694 -17.375 16.25 C-15.45833333 19.33333333 -15.45833333 19.33333333 -12.375 21.25 C-8.04532286 21.4019185 -6.14427242 20.92311337 -2.875 18.0625 C-1.14559349 15.33067798 -1.14559349 15.33067798 -1.3125 12.1875 C-2.63801848 8.52283126 -4.06356454 7.2522633 -7.375 5.25 C-11.15649076 5.25 -12.339349 5.32742103 -15.375 7.25 Z M-76.375 79.25 C-77.20833333 82.25 -77.20833333 82.25 -76.375 85.25 C-74.45833333 88.33333333 -74.45833333 88.33333333 -71.375 90.25 C-67.52289873 90.31641554 -65.37651995 90.12229157 -62.4375 87.5625 C-61.0136605 84.4635552 -60.82346173 82.62817188 -61.375 79.25 C-63.66514716 76.2400923 -65.16635614 74.55216097 -68.875 73.625 C-72.58364386 74.55216097 -74.08485284 76.2400923 -76.375 79.25 Z M-16.375 77.25 C-17.79541821 80.09083641 -17.68952272 82.10477278 -17.375 85.25 C-15.31251175 88.18507943 -13.83220755 89.09435488 -10.4375 90.25 C-7.28495371 90.49788025 -7.28495371 90.49788025 -4.5625 88.6875 C-1.9061421 85.72755834 -1.29395268 84.22131876 -1.375 80.25 C-3.29546646 76.79316038 -4.55722684 75.52839086 -8.3125 74.25 C-11.94741294 74.25 -13.52364833 75.05038586 -16.375 77.25 Z " fill="#010101" transform="translate(291.375,174.75)"/>
<path d="M0 0 C0.75539063 -0.01224609 1.51078125 -0.02449219 2.2890625 -0.03710938 C3.39507812 -0.04000977 3.39507812 -0.04000977 4.5234375 -0.04296875 C5.19036621 -0.04707764 5.85729492 -0.05118652 6.54443359 -0.05541992 C9.13399558 0.24692861 11.24806791 1.14335693 13.625 2.1875 C13.67490593 6.43756599 13.71095579 10.68747099 13.73486328 14.93774414 C13.74484313 16.37983171 13.75843184 17.82189946 13.77587891 19.26391602 C14.00867008 39.01693161 14.00867008 39.01693161 10.00390625 44.34375 C9.40449219 44.7871875 8.80507813 45.230625 8.1875 45.6875 C7.59066406 46.1515625 6.99382812 46.615625 6.37890625 47.09375 C2.60038171 49.4500682 -0.84497106 49.35187684 -5.1875 49.375 C-6.99154297 49.39626953 -6.99154297 49.39626953 -8.83203125 49.41796875 C-12.35583425 49.18874672 -15.09629528 48.45780979 -18.375 47.1875 C-17.715 44.2175 -17.055 41.2475 -16.375 38.1875 C-15.48296875 38.28289062 -14.5909375 38.37828125 -13.671875 38.4765625 C-12.50140625 38.58742188 -11.3309375 38.69828125 -10.125 38.8125 C-8.96484375 38.92851562 -7.8046875 39.04453125 -6.609375 39.1640625 C-3.43627909 39.18705595 -1.99182756 38.88455154 0.625 37.1875 C0.625 36.1975 0.625 35.2075 0.625 34.1875 C-0.35339844 34.23970703 -0.35339844 34.23970703 -1.3515625 34.29296875 C-6.76312812 34.46058361 -10.85364435 34.52469108 -15.375 31.1875 C-19.79227435 25.84027315 -19.93008528 21.04281222 -19.6953125 14.21875 C-19.14959483 9.05439744 -17.64165678 6.35915752 -13.875 2.875 C-9.38826838 -0.15354384 -5.22668002 0.00441443 0 0 Z M-7.375 10.625 C-8.84632158 14.39526154 -9.12402051 18.2000673 -8.375 22.1875 C-7.12971339 24.00597213 -7.12971339 24.00597213 -5.375 25.1875 C-2.27998792 25.44015405 -0.17370027 25.58685013 2.625 24.1875 C2.625 19.2375 2.625 14.2875 2.625 9.1875 C-2.71104504 8.62269275 -2.71104504 8.62269275 -7.375 10.625 Z " fill="#020202" transform="translate(354.375,291.8125)"/>
<path d="M0 0 C0 5.28 0 10.56 0 16 C1.85625 15.9175 3.7125 15.835 5.625 15.75 C11.19763103 15.75 13.95222528 16.16526606 18 20 C22.25297143 25.87315102 21.12363146 35.05785949 21.0625 41.9375 C21.05798828 42.90751953 21.05347656 43.87753906 21.04882812 44.87695312 C21.03713169 47.25132906 21.01919941 49.62567288 21 52 C17.37 52 13.74 52 10 52 C9.95101562 50.54207031 9.90203125 49.08414063 9.8515625 47.58203125 C9.77651097 45.6588358 9.70096417 43.73565962 9.625 41.8125 C9.5940625 40.85279297 9.563125 39.89308594 9.53125 38.90429688 C9.49257812 37.97294922 9.45390625 37.04160156 9.4140625 36.08203125 C9.36693115 34.80162964 9.36693115 34.80162964 9.31884766 33.49536133 C8.96650422 30.73785578 8.12928753 28.53000031 7 26 C5.02 26 3.04 26 1 26 C0.67 34.58 0.34 43.16 0 52 C-3.63 52 -7.26 52 -11 52 C-11 35.17 -11 18.34 -11 1 C-6 0 -6 0 0 0 Z " fill="#010101" transform="translate(166,276)"/>
<path d="M0 0 C3.55372804 3.04605261 5.15831811 5.84995433 6.625 10.25 C6.625 13.55 6.625 16.85 6.625 20.25 C-0.635 20.58 -7.895 20.91 -15.375 21.25 C-11.69277807 25.0046861 -11.69277807 25.0046861 -6.625 25.375 C-3.1262744 25.33669279 0.18781064 24.93743787 3.625 24.25 C3.955 27.22 4.285 30.19 4.625 33.25 C0.38170367 35.37164816 -2.65481025 35.58357885 -7.25 35.5625 C-7.94480469 35.57861328 -8.63960937 35.59472656 -9.35546875 35.61132812 C-14.11961939 35.61581414 -17.33358513 34.75040059 -21.375 32.25 C-26.6353625 26.69739514 -27.84228505 21.50253393 -27.69140625 14.0390625 C-27.06687576 8.53394189 -24.87537708 4.75037708 -21 0.875 C-13.94752573 -3.49081741 -7.35045515 -3.81134712 0 0 Z M-15.375 9.25 C-15.375 10.24 -15.375 11.23 -15.375 12.25 C-11.745 12.25 -8.115 12.25 -4.375 12.25 C-4.705 10.93 -5.035 9.61 -5.375 8.25 C-9.02930271 6.42284864 -12.46522516 6.34022516 -15.375 9.25 Z " fill="#020202" transform="translate(108.375,293.75)"/>
<path d="M0 0 C4.95117971 4.36175356 5.95561368 8.95292205 6.609375 15.26171875 C6.625 17.3125 6.625 17.3125 5.625 20.3125 C-1.635 20.3125 -8.895 20.3125 -16.375 20.3125 C-13.84934165 24.47061388 -13.84934165 24.47061388 -10.375 25.3125 C-5.89621488 25.48151076 -1.77144736 25.17034339 2.625 24.3125 C3.7827506 27.78575181 3.69366652 30.67317448 3.625 34.3125 C-3.04456093 36.43228293 -14.30758603 36.98473713 -20.625 33.75 C-25.31153575 29.59602513 -27.09379996 26.94186537 -27.75390625 20.76953125 C-28.15012102 7.82225502 -28.15012102 7.82225502 -23.375 2.3125 C-16.01643664 -3.20215421 -8.22473018 -4.11236509 0 0 Z M-15.25 8.6875 C-16.56473666 10.25716014 -16.56473666 10.25716014 -16.375 12.3125 C-12.415 12.3125 -8.455 12.3125 -4.375 12.3125 C-5.365 10.6625 -6.355 9.0125 -7.375 7.3125 C-10.70972201 6.756713 -12.4850287 6.65985438 -15.25 8.6875 Z " fill="#020202" transform="translate(421.375,293.6875)"/>
<path d="M0 0 C4.72630626 4.06682167 7.29752063 8.25521459 7.890625 14.42578125 C8.03132759 21.02707768 6.51680604 25.56854093 2.8125 31.125 C-0.18304297 34.20864718 -2.93000348 35.15051812 -7.1796875 35.6484375 C-13.80802833 35.73451985 -18.087893 35.55749319 -23.3125 31.3125 C-27.62221513 25.61468644 -28.78098846 20.33982689 -28.3125 13.3125 C-26.63153686 6.3504007 -23.300149 2.304266 -17.3125 -1.6875 C-11.45373479 -3.58298286 -5.39634614 -2.74908199 0 0 Z M-14.625 8.8125 C-16.8587816 12.12180608 -17.24485286 14.32131853 -17.3125 18.3125 C-16.71395235 21.21890924 -15.93615334 22.6937043 -14.3125 25.3125 C-11.4279892 26.72392752 -11.4279892 26.72392752 -8.3125 26.3125 C-4.80059851 24.1294261 -4.35012806 22.46802932 -3.375 18.4375 C-3.06782585 14.32904576 -3.77952882 11.66255865 -6.3125 8.3125 C-9.8883684 6.94301849 -11.37802102 6.70635147 -14.625 8.8125 Z " fill="#020202" transform="translate(260.3125,293.6875)"/>
<path d="M0 0 C4.42789482 3.59766454 6.08778955 7.63096648 6.9375 13.1875 C7.5167698 20.36803189 5.79406722 26.2355586 1.125 31.8125 C-4.24176167 35.83757125 -10.4556887 35.43942036 -16.875 34.8125 C-22.32962885 33.12652381 -25.22232284 29.72682224 -27.875 24.8125 C-29.80008399 18.80575059 -29.85813143 12.18797251 -27.1875 6.4375 C-24.52806342 1.82533027 -21.57475662 -0.50105983 -16.625 -2.5 C-10.52167544 -3.61894284 -5.30620529 -3.47030303 0 0 Z M-16.875 9.8125 C-18.1928872 14.19155558 -18.13459355 17.95736832 -16.8125 22.3125 C-15.04613529 25.03834918 -15.04613529 25.03834918 -11.9375 25.9375 C-8.8801146 26.03218029 -8.8801146 26.03218029 -6.5 24.5625 C-3.90837146 20.17666709 -4.1298651 15.77253936 -4.875 10.8125 C-6.3381891 8.0107517 -6.3381891 8.0107517 -8.875 6.8125 C-12.81917722 6.13910389 -14.40331044 6.7418216 -16.875 9.8125 Z " fill="#020202" transform="translate(322.875,294.1875)"/>
<path d="M0 0 C0.78568359 -0.02449219 1.57136719 -0.04898437 2.38085938 -0.07421875 C7.70901921 -0.10097102 11.03411333 0.56874493 15.0625 4.375 C18.65181472 11.05699469 18.42385769 17.4214088 18.25 24.875 C18.22969727 26.53789062 18.22969727 26.53789062 18.20898438 28.234375 C18.17389273 30.94812907 18.12009511 33.66163026 18.0625 36.375 C14.4325 36.375 10.8025 36.375 7.0625 36.375 C7.01351562 34.74949219 6.96453125 33.12398438 6.9140625 31.44921875 C6.83903435 29.32029508 6.76348654 27.19138968 6.6875 25.0625 C6.6565625 23.99064453 6.625625 22.91878906 6.59375 21.81445312 C6.55507812 20.78642578 6.51640625 19.75839844 6.4765625 18.69921875 C6.4451416 17.75135498 6.4137207 16.80349121 6.38134766 15.8269043 C6.2135949 13.1219731 6.2135949 13.1219731 4.0625 10.375 C1.7525 10.045 -0.5575 9.715 -2.9375 9.375 C-2.9375 18.285 -2.9375 27.195 -2.9375 36.375 C-6.5675 36.375 -10.1975 36.375 -13.9375 36.375 C-13.9375 25.155 -13.9375 13.935 -13.9375 2.375 C-8.75871881 0.30348752 -5.42047252 0.00884975 0 0 Z " fill="#010101" transform="translate(207.9375,291.625)"/>
<path d="M0 0 C13.2 0 26.4 0 40 0 C40 3.3 40 6.6 40 10 C35.38 10 30.76 10 26 10 C26 22.21 26 34.42 26 47 C22.04 47 18.08 47 14 47 C14 34.79 14 22.58 14 10 C9.38 10 4.76 10 0 10 C0 6.7 0 3.4 0 0 Z " fill="#000000" transform="translate(38,281)"/>
<path d="M0 0 C-0.66 2.97 -1.32 5.94 -2 9 C-2.69867188 8.90460938 -3.39734375 8.80921875 -4.1171875 8.7109375 C-5.02726562 8.60007812 -5.93734375 8.48921875 -6.875 8.375 C-7.77992188 8.25898438 -8.68484375 8.14296875 -9.6171875 8.0234375 C-10.40351563 8.01570313 -11.18984375 8.00796875 -12 8 C-12.66 8.66 -13.32 9.32 -14 10 C-13.08476562 10.47050781 -12.16953125 10.94101562 -11.2265625 11.42578125 C-10.02583262 12.05428829 -8.8253232 12.68321663 -7.625 13.3125 C-7.02171875 13.62123047 -6.4184375 13.92996094 -5.796875 14.24804688 C-2.61741675 15.92609428 -1.03462448 16.94806328 1 20 C1.5461026 23.3915846 1.54104628 26.60763982 1 30 C-1.52676039 33.34625024 -3.03933542 34.67977847 -7 36 C-9.65847869 36.12226159 -12.27923638 36.18512018 -14.9375 36.1875 C-15.65357422 36.19974609 -16.36964844 36.21199219 -17.10742188 36.22460938 C-21.22060547 36.23604547 -23.22281567 35.88859216 -27 34 C-26.34 31.03 -25.68 28.06 -25 25 C-17.575 25.99 -17.575 25.99 -10 27 C-10.69116044 23.77894961 -10.69116044 23.77894961 -13.6171875 22.60546875 C-15.78182991 21.66330425 -17.94849316 20.7257686 -20.1171875 19.79296875 C-23.63045361 17.60788861 -24.58808052 15.84711163 -26 12 C-26.38121683 9.11215199 -26.01128912 6.73048063 -25 4 C-22.2370148 0.97999292 -20.15057942 -0.63390655 -16.25 -1.875 C-10.73493061 -2.08711805 -5.25258413 -1.75086138 0 0 Z " fill="#030303" transform="translate(459,293)"/>
<path d="M0 0 C0 15.84 0 31.68 0 48 C-6.8225911 50.72903644 -14.1261377 51.29206417 -21.328125 49.3828125 C-25.40555373 47.37955404 -27.59940407 44.31851555 -29.34375 40.2734375 C-31.16023493 33.9806147 -30.54217177 27.6827608 -27.98828125 21.69140625 C-25.82788404 17.99396755 -22.95575968 16.31858656 -19 15 C-17.0625 14.8671875 -17.0625 14.8671875 -15 14.875 C-14.319375 14.87242187 -13.63875 14.86984375 -12.9375 14.8671875 C-11 15 -11 15 -8 16 C-7.95101562 14.92878906 -7.90203125 13.85757813 -7.8515625 12.75390625 C-7.77654706 11.35674361 -7.7009987 9.9596095 -7.625 8.5625 C-7.5940625 7.85544922 -7.563125 7.14839844 -7.53125 6.41992188 C-7.42719371 4.60760812 -7.22080108 2.80182012 -7 1 C-5 0 -5 0 0 0 Z M-21 24 C-23.34530484 27.01539194 -23.35896013 30.21482457 -23.25390625 33.96875 C-22.85798839 37.13609288 -21.75756719 39.36364922 -20 42 C-17.01279441 43.90563115 -14.7583369 44.22818638 -11.25 44.125 C-10.05117187 44.09792969 -10.05117187 44.09792969 -8.828125 44.0703125 C-8.22484375 44.04710937 -7.6215625 44.02390625 -7 44 C-6.85489838 40.72963272 -6.76600627 37.46008993 -6.6875 34.1875 C-6.64560547 33.25873047 -6.60371094 32.32996094 -6.56054688 31.37304688 C-6.51457982 28.82647203 -6.53163544 26.50428138 -7 24 C-11.64571915 19.62614738 -16.11567697 20.40102513 -21 24 Z " fill="#030303" transform="translate(156,207)"/>
<path d="M0 0 C-0.66 2.97 -1.32 5.94 -2 9 C-2.75925781 8.96519531 -3.51851562 8.93039062 -4.30078125 8.89453125 C-5.29464844 8.86746094 -6.28851563 8.84039062 -7.3125 8.8125 C-8.29863281 8.77769531 -9.28476563 8.74289062 -10.30078125 8.70703125 C-12.99549244 8.7793237 -12.99549244 8.7793237 -14.8046875 10.26953125 C-16.83256505 13.20531476 -17.00677275 16.52557816 -17 20 C-16.41245546 22.89483819 -16.41245546 22.89483819 -15 25 C-11.85069107 26.04976964 -9.61185544 26.10131595 -6.3125 26.0625 C-5.31863281 26.05347656 -4.32476562 26.04445313 -3.30078125 26.03515625 C-2.54152344 26.02355469 -1.78226563 26.01195312 -1 26 C0.4783226 28.95664519 0.06032783 31.74229737 0 35 C-3.03235777 36.51617889 -5.87925013 36.21034412 -9.25 36.25 C-10.55453125 36.27578125 -11.8590625 36.3015625 -13.203125 36.328125 C-18.40180359 35.87885648 -21.66764674 34.40637289 -25.25 30.625 C-29.10820458 24.83769314 -29.68716 19.86086312 -29 13 C-27.19514975 7.20548078 -24.60102242 3.07380309 -19.25 -0.0078125 C-12.87222905 -2.86237933 -6.51679269 -2.17226423 0 0 Z " fill="#020202" transform="translate(149,293)"/>
<path d="M0 0 C0.01981934 1.1960083 0.03963867 2.3920166 0.06005859 3.62426758 C0.13608272 8.05807694 0.22480497 12.49155674 0.31738281 16.92504883 C0.35568577 18.84457904 0.39053633 20.76418135 0.421875 22.68383789 C0.46749702 25.4418313 0.5254958 28.19932777 0.5859375 30.95703125 C0.59748871 31.81649857 0.60903992 32.67596588 0.62094116 33.56147766 C0.64081085 34.36208115 0.66068054 35.16268463 0.68115234 35.98754883 C0.69447601 36.6914827 0.70779968 37.39541656 0.7215271 38.12068176 C0.91244185 40.33097464 0.91244185 40.33097464 3 43 C3.99 43.33 4.98 43.66 6 44 C5.67 46.97 5.34 49.94 5 53 C-0.23890086 53.31433405 -3.52833673 52.80778856 -8 50 C-11.64121086 44.53818372 -11.13529346 38.89462448 -11.09765625 32.54296875 C-11.0962413 31.64000565 -11.09482635 30.73704254 -11.09336853 29.80671692 C-11.08778823 26.93361037 -11.07523934 24.06058284 -11.0625 21.1875 C-11.05748245 19.23502717 -11.05291999 17.28255311 -11.04882812 15.33007812 C-11.03782525 10.55335515 -11.02057418 5.77669096 -11 1 C-7.26562152 0.12132271 -3.83225427 -0.08912219 0 0 Z " fill="#010101" transform="translate(285,276)"/>
<path d="M0 0 C3.82158012 2.43191462 5.32820787 4.48462362 6.75 8.75 C6.75 12.05 6.75 15.35 6.75 18.75 C-0.51 18.75 -7.77 18.75 -15.25 18.75 C-12.26695036 25.4726499 -12.26695036 25.4726499 -9.25 26.75 C-7.06297333 26.79550381 -4.8746627 26.7884134 -2.6875 26.75 C-0.5419961 26.71240081 1.60467492 26.70329905 3.75 26.75 C4.75 27.75 4.75 27.75 4.8125 30.3125 C4.791875 31.116875 4.77125 31.92125 4.75 32.75 C-1.40294839 34.8009828 -8.69484857 34.60171714 -14.8125 32.5625 C-18.83748227 29.56956446 -21.30598661 26.6927116 -22.25 21.75 C-22.83720706 15.55063366 -22.8351444 9.90071669 -19.64453125 4.41015625 C-14.61087065 -1.58229684 -7.10291447 -2.73189018 0 0 Z M-14.25 8.75 C-14.58 10.07 -14.91 11.39 -15.25 12.75 C-10.3 12.75 -5.35 12.75 -0.25 12.75 C-0.73285763 7.932011 -0.73285763 7.932011 -3.0625 5.9375 C-7.94894451 3.28485869 -10.65430616 5.25148708 -14.25 8.75 Z " fill="#020202" transform="translate(185.25,223.25)"/>
<path d="M0 0 C4.69112481 2.36578277 7.17077047 5.48858388 9.0625 10.3515625 C10.52232842 15.98232928 10.07005267 20.93904304 8.0625 26.3515625 C5.80353488 30.0899907 3.14794789 32.72767044 -0.9375 34.3515625 C-6.10065399 35.02230456 -10.58039025 34.94375584 -15.375 32.8515625 C-20.04397189 28.29646797 -22.14552462 23.84407659 -22.375 17.2890625 C-22.13037142 12.14397114 -21.1732349 7.70336014 -17.5078125 3.84765625 C-12.37925055 -0.63026725 -6.54916762 -2.19185852 0 0 Z M-12.9375 8.3515625 C-15.33156544 12.34167156 -15.68380024 16.80268486 -14.9375 21.3515625 C-12.69587575 25.60822949 -12.69587575 25.60822949 -8.9375 28.3515625 C-6.0217309 28.76858372 -6.0217309 28.76858372 -2.9375 28.3515625 C-0.63474444 26.4844634 0.74073871 24.99508509 2.0625 22.3515625 C2.56280319 17.25831198 2.829285 12.82614904 0.4375 8.2265625 C-4.30836989 4.47982311 -8.29933647 4.48642622 -12.9375 8.3515625 Z " fill="#040404" transform="translate(394.9375,222.6484375)"/>
<path d="M0 0 C4.69112481 2.36578277 7.17077047 5.48858388 9.0625 10.3515625 C10.52232842 15.98232928 10.07005267 20.93904304 8.0625 26.3515625 C5.80353488 30.0899907 3.14794789 32.72767044 -0.9375 34.3515625 C-6.10065399 35.02230456 -10.58039025 34.94375584 -15.375 32.8515625 C-20.04397189 28.29646797 -22.14552462 23.84407659 -22.375 17.2890625 C-22.13037142 12.14397114 -21.1732349 7.70336014 -17.5078125 3.84765625 C-12.37925055 -0.63026725 -6.54916762 -2.19185852 0 0 Z M-12.9375 8.3515625 C-15.33156544 12.34167156 -15.68380024 16.80268486 -14.9375 21.3515625 C-12.69587575 25.60822949 -12.69587575 25.60822949 -8.9375 28.3515625 C-6.0217309 28.76858372 -6.0217309 28.76858372 -2.9375 28.3515625 C-0.63474444 26.4844634 0.74073871 24.99508509 2.0625 22.3515625 C2.56280319 17.25831198 2.829285 12.82614904 0.4375 8.2265625 C-4.30836989 4.47982311 -8.29933647 4.48642622 -12.9375 8.3515625 Z " fill="#030303" transform="translate(357.9375,222.6484375)"/>
<path d="M0 0 C4.69112481 2.36578277 7.17077047 5.48858388 9.0625 10.3515625 C10.52232842 15.98232928 10.07005267 20.93904304 8.0625 26.3515625 C5.80353488 30.0899907 3.14794789 32.72767044 -0.9375 34.3515625 C-6.10065399 35.02230456 -10.58039025 34.94375584 -15.375 32.8515625 C-20.04397189 28.29646797 -22.14552462 23.84407659 -22.375 17.2890625 C-22.13037142 12.14397114 -21.1732349 7.70336014 -17.5078125 3.84765625 C-12.37925055 -0.63026725 -6.54916762 -2.19185852 0 0 Z M-12.9375 8.3515625 C-15.33156544 12.34167156 -15.68380024 16.80268486 -14.9375 21.3515625 C-12.69587575 25.60822949 -12.69587575 25.60822949 -8.9375 28.3515625 C-6.0217309 28.76858372 -6.0217309 28.76858372 -2.9375 28.3515625 C-0.63474444 26.4844634 0.74073871 24.99508509 2.0625 22.3515625 C2.56280319 17.25831198 2.829285 12.82614904 0.4375 8.2265625 C-4.30836989 4.47982311 -8.29933647 4.48642622 -12.9375 8.3515625 Z " fill="#040404" transform="translate(110.9375,222.6484375)"/>
<path d="M0 0 C0 3.3 0 6.6 0 10 C4.29 10 8.58 10 13 10 C13 11.98 13 13.96 13 16 C8.71 16 4.42 16 0 16 C0.11381897 18.93832645 0.24056551 21.8751065 0.375 24.8125 C0.4059375 25.64587891 0.436875 26.47925781 0.46875 27.33789062 C0.50742187 28.14033203 0.54609375 28.94277344 0.5859375 29.76953125 C0.6173584 30.50792236 0.6487793 31.24631348 0.68115234 32.00708008 C0.90834614 34.31349588 0.90834614 34.31349588 3 37 C5.43693311 37.36416047 5.43693311 37.36416047 8.125 37.1875 C9.49011719 37.14689453 9.49011719 37.14689453 10.8828125 37.10546875 C11.58148438 37.07066406 12.28015625 37.03585938 13 37 C13.33 38.65 13.66 40.3 14 42 C9.53268383 44.97821078 5.23648881 44.60568465 0 44 C-3.80201156 42.06019818 -4.7062712 40.84025062 -6.10888672 36.82788086 C-7.03649458 32.84323329 -7.22812911 29.40207375 -7.1953125 25.31640625 C-7.1924826 24.61603745 -7.18965271 23.91566864 -7.18673706 23.19407654 C-7.17564885 20.9833683 -7.15056703 18.77308329 -7.125 16.5625 C-7.11495546 15.05274028 -7.1058322 13.54297412 -7.09765625 12.03320312 C-7.07574714 8.35533403 -7.04129758 4.6777084 -7 1 C-4 0 -4 0 0 0 Z " fill="#020202" transform="translate(418,213)"/>
<path d="M0 0 C0.76183594 -0.01417969 1.52367188 -0.02835938 2.30859375 -0.04296875 C4.79597315 0.21137334 6.41058106 0.94732804 8.5625 2.1875 C8.2325 4.1675 7.9025 6.1475 7.5625 8.1875 C6.54929687 8.04441406 6.54929687 8.04441406 5.515625 7.8984375 C4.62359375 7.78757813 3.7315625 7.67671875 2.8125 7.5625 C1.93078125 7.44648438 1.0490625 7.33046875 0.140625 7.2109375 C-2.70666208 7.18505307 -4.08007216 7.62991375 -6.4375 9.1875 C-8.82522807 13.24663771 -9.05895225 17.59617365 -8.4375 22.1875 C-6.70782287 25.93297604 -6.70782287 25.93297604 -3.4375 28.1875 C-1.39694995 28.25815617 0.64584257 28.27171976 2.6875 28.25 C3.78320312 28.24097656 4.87890625 28.23195312 6.0078125 28.22265625 C6.85085937 28.21105469 7.69390625 28.19945312 8.5625 28.1875 C8.8925 29.8375 9.2225 31.4875 9.5625 33.1875 C4.88126521 36.3083232 0.04429103 35.64492097 -5.4375 35.1875 C-10.70736555 33.49361465 -12.75201842 30.96168948 -15.4375 26.1875 C-17.31048772 20.56853684 -16.97631173 15.01347309 -15.3125 9.375 C-11.73558333 3.29424167 -7.19026458 0.06062618 0 0 Z " fill="#030303" transform="translate(76.4375,221.8125)"/>
<path d="M0 0 C3.63 0 7.26 0 11 0 C11 11.88 11 23.76 11 36 C7.37 36 3.74 36 0 36 C0 24.12 0 12.24 0 0 Z " fill="#000000" transform="translate(376,292)"/>
<path d="M0 0 C0 1.65 0 3.3 0 5 C-4.2654837 6.03405665 -7.37316973 6 -12 6 C-12 14.91 -12 23.82 -12 33 C-14.31 33 -16.62 33 -19 33 C-19 22.44 -19 11.88 -19 1 C-6.42857143 -2.14285714 -6.42857143 -2.14285714 0 0 Z " fill="#020202" transform="translate(333,223)"/>
<path d="M0 0 C4.52451299 1.44399351 4.52451299 1.44399351 5.9375 3.9375 C5.8125 7.5 5.8125 7.5 4.9375 10.9375 C1.46826119 13.25032587 0.01544425 13.36228586 -4.0625 12.9375 C-5.9375 11.8125 -5.9375 11.8125 -7.0625 9.9375 C-7.60650387 6.28490261 -7.50024093 4.5941114 -5.4375 1.5 C-3.0625 -0.0625 -3.0625 -0.0625 0 0 Z " fill="#040404" transform="translate(382.0625,276.0625)"/>
</svg>
