<?xml version="1.0" encoding="UTF-8"?>
<!DOCTYPE svg PUBLIC "-//W3C//DTD SVG 1.1//EN" "http://www.w3.org/Graphics/SVG/1.1/DTD/svg11.dtd">
<svg xmlns="http://www.w3.org/2000/svg" version="1.1" width="180px" height="40px" style="shape-rendering:geometricPrecision; text-rendering:geometricPrecision; image-rendering:optimizeQuality; fill-rule:evenodd; clip-rule:evenodd" xmlns:xlink="http://www.w3.org/1999/xlink">
<g><path style="opacity:0.559" fill="#FFFFFF" d="M 94.5,1.5 C 95.9778,1.23798 97.3112,1.57131 98.5,2.5C 98.3764,3.10667 98.0431,3.44001 97.5,3.5C 97.1667,3.5 96.8333,3.5 96.5,3.5C 95.6618,3.84171 95.3284,4.50838 95.5,5.5C 95.5,5.83333 95.5,6.16667 95.5,6.5C 95.5,7.16667 95.5,7.83333 95.5,8.5C 92.3197,6.36545 91.9864,4.03211 94.5,1.5 Z"/></g>
<g><path style="opacity:0.612" fill="#FFFFFF" d="M 94.5,-0.5 C 95.8333,-0.5 97.1667,-0.5 98.5,-0.5C 99.1667,0.5 99.8333,1.5 100.5,2.5C 99.7777,3.55114 98.7777,4.21781 97.5,4.5C 97.5,4.16667 97.5,3.83333 97.5,3.5C 98.0431,3.44001 98.3764,3.10667 98.5,2.5C 97.3112,1.57131 95.9778,1.23798 94.5,1.5C 94.5,0.833333 94.5,0.166667 94.5,-0.5 Z"/></g>
<g><path style="opacity:0.004" fill="#FFFFFF" d="M 96.5,3.5 C 96.5,4.16667 96.8333,4.5 97.5,4.5C 97.1583,5.33825 96.4916,5.67158 95.5,5.5C 95.3284,4.50838 95.6618,3.84171 96.5,3.5 Z"/></g>
<g><path style="opacity:0.52" fill="#FFFFFF" d="M 100.5,2.5 C 100.428,5.55255 99.4279,8.21921 97.5,10.5C 96.2089,9.45834 96.2089,8.29167 97.5,7C 96.9056,6.53566 96.2389,6.36899 95.5,6.5C 95.5,6.16667 95.5,5.83333 95.5,5.5C 96.4916,5.67158 97.1583,5.33825 97.5,4.5C 98.7777,4.21781 99.7777,3.55114 100.5,2.5 Z"/></g>
<g><path style="opacity:0.496" fill="#FFFFFF" d="M 83.5,12.5 C 86.2869,11.5233 89.2869,11.19 92.5,11.5C 92.8333,12.1667 93.1667,12.8333 93.5,13.5C 90.8333,13.5 88.1667,13.5 85.5,13.5C 84.8333,13.1667 84.1667,12.8333 83.5,12.5 Z"/></g>
<g><path style="opacity:0.459" fill="#FFFFFF" d="M 95.5,6.5 C 96.2389,6.36899 96.9056,6.53566 97.5,7C 96.2089,8.29167 96.2089,9.45834 97.5,10.5C 97.5,11.5 97.5,12.5 97.5,13.5C 96.8333,13.8333 96.1667,14.1667 95.5,14.5C 95.1583,13.6618 94.4916,13.3284 93.5,13.5C 93.1667,12.8333 92.8333,12.1667 92.5,11.5C 94.5,11.5 95.5,10.5 95.5,8.5C 95.5,7.83333 95.5,7.16667 95.5,6.5 Z"/></g>
<g><path style="opacity:0.325" fill="#FFFFFF" d="M 68.5,13.5 C 67.8333,13.1667 67.1667,12.8333 66.5,12.5C 66.238,11.0222 66.5713,9.68884 67.5,8.5C 68.4519,10.0453 68.7852,11.712 68.5,13.5 Z"/></g>
<g><path style="opacity:0.267" fill="#FFFFFF" d="M 127.5,14.5 C 127.158,13.6618 126.492,13.3284 125.5,13.5C 126.066,9.19434 126.732,8.86101 127.5,12.5C 131.5,13.1667 131.5,13.8333 127.5,14.5 Z"/></g>
<g><path style="opacity:0.412" fill="#FFFFFF" d="M 47.5,13.5 C 49.0348,12.2121 50.7015,12.2121 52.5,13.5C 51.3112,14.4287 49.9778,14.762 48.5,14.5C 48.5,13.8333 48.1667,13.5 47.5,13.5 Z"/></g>
<g><path style="opacity:0.453" fill="#FFFFFF" d="M 60.5,14.5 C 59.5084,14.3284 58.8417,14.6618 58.5,15.5C 56.1205,14.4331 55.1205,15.4331 55.5,18.5C 55.5,19.1667 55.5,19.8333 55.5,20.5C 51.4034,17.0157 51.9034,14.349 57,12.5C 58.6991,12.3866 59.8658,13.0532 60.5,14.5 Z"/></g>
<g><path style="opacity:0.49" fill="#FFFFFF" d="M 71.5,12.5 C 72.1667,13.1667 72.8333,13.8333 73.5,14.5C 72.8333,14.5 72.5,14.8333 72.5,15.5C 71.8826,15.3893 71.3826,15.056 71,14.5C 70.7679,15.7375 70.2679,16.7375 69.5,17.5C 69.1201,15.302 69.7868,13.6354 71.5,12.5 Z"/></g>
<g><path style="opacity:0.522" fill="#FFFFFF" d="M 75.5,14.5 C 76.1667,13.8333 76.8333,13.1667 77.5,12.5C 78.7882,13.7881 78.7882,15.1215 77.5,16.5C 76.547,14.9547 76.2137,13.288 76.5,11.5C 77.4716,11.358 78.1383,11.6913 78.5,12.5C 78.7778,12.9333 78.7778,13.4333 78.5,14C 77.5,15.1667 77.5,16.3333 78.5,17.5C 77.6618,18.8417 76.9952,18.5084 76.5,16.5C 76.1667,16.5 75.8333,16.5 75.5,16.5C 75.5,15.8333 75.5,15.1667 75.5,14.5 Z"/></g>
<g><path style="opacity:0.357" fill="#FFFFFF" d="M 58.5,19.5 C 57.5929,17.8356 57.2596,16.1689 57.5,14.5C 58.3417,14.6618 59.0084,14.3284 59.5,13.5C 59.1667,13.8333 58.8333,14.1667 58.5,14.5C 59.1922,15.3849 59.6922,16.3849 60,17.5C 59.6922,18.6151 59.1922,19.6151 58.5,19.5 Z"/></g>
<g><path style="opacity:0.431" fill="#FFFFFF" d="M 64.5,16.5 C 65.8333,16.5 67.1667,16.5 68.5,16.5C 68.8153,17.8055 68.4819,18.8055 67.5,19.5C 66.9857,19.7072 66.3191,19.3739 65.5,18.5C 66.3333,18.5 67.1667,18.5 68,18.5C 67.6151,17.3849 67.1151,16.3849 66.5,15.5C 65.8779,15.4362 65.2112,15.7696 64.5,16.5 Z"/></g>
<g><path style="opacity:0.478" fill="#FFFFFF" d="M 53.5,17.5 C 52.9679,16.6618 52.1346,16.3284 51,16.5C 50.6667,15.8333 50.3333,15.1667 50,14.5C 51.0543,13.5422 52.0543,13.8756 53,15.5C 53.5,16.1667 53.5,16.8333 53.5,17.5 Z"/></g>
<g><path style="opacity:0.569" fill="#FFFFFF" d="M 65.5,17.5 C 66.0155,16.8268 66.6821,16.4935 67.5,16.5C 68.0482,17.4616 68.5482,18.4616 69,19.5C 68.5,20.8333 67.8333,21.8333 67,22.5C 66.0137,20.8333 65.5137,19.1667 65.5,17.5 Z"/></g>
</svg>
